<?xml version="1.0" encoding="UTF-8" standalone="no"?>
<svg xmlns="http://www.w3.org/2000/svg" width="200" height="200" viewBox="0 0 200 200">
    <!-- Background -->
    <rect width="200" height="200" fill="#4A90E2" rx="40" ry="40"/>
    
    <!-- Calendar Icon -->
    <path d="M50 60 H150 A10 10 0 0 1 160 70 V150 A10 10 0 0 1 150 160 H50 A10 10 0 0 1 40 150 V70 A10 10 0 0 1 50 60 Z" 
          fill="white" stroke="#FFFFFF" stroke-width="4"/>
    
    <!-- Date Markers -->
    <rect x="55" y="85" width="30" height="30" rx="5" ry="5" fill="#FFFFFF" opacity="0.7"/>
    <text x="70" y="108" font-family="Arial" font-size="16" font-weight="bold" fill="#4A90E2" text-anchor="middle">20</text>
    
    <!-- Event Markers -->
    <circle cx="100" cy="120" r="15" fill="#FFFFFF" opacity="0.7"/>
    <path d="M100 112 L106 120 L100 128" stroke="#4A90E2" stroke-width="3" fill="none"/>
    
    <!-- Venue Marker -->
    <path d="M140 100 L150 110 L140 120 Z" fill="#FFFFFF" opacity="0.7"/>
    <path d="M140 100 L150 110 L140 120" stroke="#4A90E2" stroke-width="3"/>
</svg>
